<mxfile host="app.diagrams.net" modified="2021-11-08T14:36:32.504Z" agent="5.0 (X11)" etag="TbGDnTpj0aNNfkvbKR3M" version="15.7.0" type="github">
  <diagram id="swZzT2PVPqm0Ozc7m7ap" name="Page-1">
    <mxGraphModel dx="862" dy="476" grid="1" gridSize="10" guides="1" tooltips="1" connect="1" arrows="1" fold="1" page="1" pageScale="1" pageWidth="827" pageHeight="1169" math="0" shadow="0">
      <root>
        <mxCell id="0" />
        <mxCell id="1" parent="0" />
        <mxCell id="DCyA0k2-LHy1FcChu2A_-1" value="" style="rounded=1;whiteSpace=wrap;html=1;" parent="1" vertex="1">
          <mxGeometry x="320" y="60" width="120" height="60" as="geometry" />
        </mxCell>
        <mxCell id="t3cyBTIwWH8qBOmAyJ6w-2" value="" style="shape=cylinder3;whiteSpace=wrap;html=1;boundedLbl=1;backgroundOutline=1;size=15;" vertex="1" parent="1">
          <mxGeometry x="250" y="190" width="60" height="80" as="geometry" />
        </mxCell>
      </root>
    </mxGraphModel>
  </diagram>
</mxfile>
